<?xml version="1.0" encoding="UTF-8" standalone="no"?>
<svg width="1024px" height="1024px" viewBox="0 0 1024 1024" version="1.1" xmlns="http://www.w3.org/2000/svg" xmlns:xlink="http://www.w3.org/1999/xlink">
    <!-- Generator: Sketch 41 (35326) - http://www.bohemiancoding.com/sketch -->
    <title>Wolf Grey</title>
    <desc>Created with Sketch.</desc>
    <defs></defs>
    <g id="Page-1" stroke="none" stroke-width="1" fill="none" fill-rule="evenodd">
        <g id="Wolf-Grey" fill="#A5ACAF">
            <g id="Path-Copy-2-+-Path-Copy-Copy" transform="translate(147.000000, 17.000000)">
                <path d="M67.738,375.841502 L63.9232522,426.468094 C63.9232522,426.468094 0.2552743,426.468088 0.2552743,320.347701 C0.2552743,135.664665 164.801504,0.451329722 364.089609,0.451329722 C556.2704,0.451329722 731.224916,135.895545 731.301518,320.347707 C731.224916,426.468088 664.587905,426.468094 664.587905,426.468094 L660.013095,375.841502 L652.717216,375.841502 C652.717216,375.841502 659.043735,445.593889 659.778537,451.222153 C662.166667,470.358252 675.562414,481.463251 695.033631,482.00443 C697.862249,523.069113 712.313489,590.824757 638.942289,592.729708 C562.012482,594.742895 521.825199,598.747621 523.114894,665.637379 C484.924556,713.91057 382.819156,714.077847 360.49828,714.077847 C338.201959,714.077847 243.1224,713.91057 204.991677,665.637379 C206.296377,598.747621 166.110011,594.742895 89.2045946,592.729708 C15.8099039,590.824757 30.2300232,523.069113 33.1388213,482.00443 C52.6101669,481.463251 65.9391088,470.358252 68.3782959,451.222153 C69.006516,446.026832 75.4588599,375.841502 75.4588599,375.841502 L67.738,375.841502 Z M601.895782,363.594942 C601.895782,363.594942 621.653219,338.717976 633.485521,238.688879 C636.912151,138.659782 621.768299,106.33381 621.768299,106.33381 C621.768299,106.33381 605.072518,160.819188 572.026479,193.754771 C540.003431,220.702239 499.945596,226.524841 491.073604,243.264405 C516.918188,347.181063 601.895782,363.594942 601.895782,363.594942 Z M126.797581,363.594942 C126.797581,363.594942 107.057895,338.717976 95.2946758,238.688879 C91.9333895,138.659782 107.097553,106.33381 107.097553,106.33381 C107.097553,106.33381 123.758872,160.819188 156.783537,193.754771 C188.788794,220.702239 228.842749,226.524841 237.703515,243.264405 C211.786912,347.181063 126.797581,363.594942 126.797581,363.594942 Z M448.491955,715.600017 L450.196194,754.148258 L415.531963,761.852947 C415.531963,761.852947 415.411186,759.585457 415.328272,757.655772 C414.805158,746.061505 413.633859,722.87297 413.633859,722.87297 C425.091958,721.318663 437.576756,718.061004 448.491955,715.600017 Z M370.091614,768.229269 L369.529622,727.17217 C381.503072,726.977882 394.08747,725.865878 405.948584,724.635385 L406.920124,764.333649 L370.091614,768.229269 Z M495.938904,734.753411 L492.754951,700.396743 C502.266411,695.280482 510.877351,689.419448 518.278185,683.072694 L522.460054,714.774086 L495.938904,734.753411 Z M239.655564,780.961591 L274.121806,752.678937 L276.449379,713.832241 C265.757725,710.468321 255.640354,707.898255 246.057664,703.504564 L239.655564,780.961591 Z M492.619968,780.961591 L458.153726,752.678937 L455.763307,713.75671 C466.454961,710.39279 476.635179,707.898255 486.217869,703.504564 L492.619968,780.961591 Z M235.219909,734.753411 L238.381194,700.396743 C228.866347,695.280482 220.251523,689.419448 212.84648,683.072694 L208.685595,714.774086 L235.219909,734.753411 Z M360.432305,767.989267 L360.962442,726.932168 C348.988411,726.73788 336.402727,725.625876 324.540278,724.395383 L323.598802,764.093647 L360.432305,767.989267 Z M283.093398,715.799177 L281.412882,754.347418 L316.080235,762.052107 C316.080235,762.052107 316.199692,759.784617 316.28148,757.854932 C316.797761,746.260664 317.955052,723.07213 317.955052,723.07213 C306.496323,721.517823 294.009848,718.260163 283.093398,715.799177 Z M513.389045,521.891003 C538.819742,525.523625 597.922001,513.59167 608.111553,488.866337 C618.044336,464.141005 600.085193,403.88941 600.085193,403.88941 C600.085193,403.88941 546.063254,445.779013 519.304202,458.08988 C484.090359,474.104654 415.053082,488.866333 415.053082,488.866333 C415.053082,488.866333 393.209355,504.375087 513.389045,521.891003 Z M215.869787,521.891003 C190.437673,525.523625 131.340072,513.59167 121.16021,488.866337 C111.237167,464.141005 129.220248,403.88941 129.220248,403.88941 C129.220248,403.88941 183.225515,445.779013 209.979693,458.08988 C245.187213,474.104654 314.218681,488.866333 314.218681,488.866333 C314.218681,488.866333 336.056324,504.375087 215.869787,521.891003 Z M511.392424,864.324728 C478.897638,889.075734 432.251546,905.87373 366.151599,906.240474 C365.816726,906.242332 365.482412,906.243807 365.148657,906.244899 C364.814906,906.243807 364.48059,906.242332 364.145715,906.240474 C298.045769,905.87373 251.399678,889.075735 218.904892,864.32473 C161.825964,815.416003 169.386905,736.976476 175.252274,703.400476 C235.930593,607.486811 115.572902,596.876966 77.1645858,611.092925 C59.1615128,627.188322 62.9889311,782.21097 257.960183,976.281918 C283.00454,995.892269 350.704285,985.295116 365.148657,982.718587 C379.593028,985.295116 447.292774,995.892269 472.337131,976.281918 C667.308383,782.21097 671.135801,627.188322 653.132728,611.092925 C614.724412,596.876966 494.366721,607.486811 555.045039,703.400476 C560.910409,736.976476 568.47135,815.416003 511.392422,864.32473 Z M364.21885,511.052729 C364.21885,511.052729 370.783782,534.515382 384.694468,556.541031 C395.390462,573.244499 414.265104,587.335802 415.328151,600.026834 C418.728328,639.92225 373.245485,637.90336 364.1822,617.392864 C354.913663,638.153488 309.678087,639.92225 313.029232,600.026834 C314.101064,587.335353 331.6743,573.244978 342.394143,556.541031 C356.335518,534.516121 364.21885,511.052729 364.21885,511.052729 Z M413.826871,844.488034 C426.376848,842.632796 440.194481,838.744419 452.292542,835.806959 L449.809214,884.054627 C449.809214,884.054627 438.281952,888.698782 432.14336,890.231516 C426.004767,891.764249 411.975369,894.415747 411.975369,894.415747 L413.826871,844.488034 Z M406.061213,895.777805 C406.061213,895.777805 397.588008,897.2178 387.461809,898.298778 C377.335611,899.379756 367.125362,899.132336 367.125362,899.132336 L368.248338,849.978264 C368.248338,849.978264 378.985251,850.39293 388.779468,849.17328 C398.573685,847.953629 407.442535,846.088455 407.442535,846.088455 L406.061213,895.777805 Z M527.243115,836.555798 C527.243115,836.555798 518.488391,846.268657 512.996471,850.790921 C507.863661,855.017479 495.368925,862.802264 495.368925,862.802264 L495.798104,817.668551 C506.514856,810.947414 516.154076,803.247883 524.291348,794.91027 L527.243115,836.555798 Z M490.18579,866.039178 C490.18579,866.039178 479.027602,872.571529 473.46056,875.12537 C467.440131,877.887199 455.423377,881.98619 455.423377,881.98619 L457.327839,834.103078 C469.276262,829.979576 480.679584,825.519462 491.497743,820.133664 L490.18579,866.039178 Z M314.355592,844.488034 C301.805615,842.632796 287.987982,838.744419 275.889921,835.806959 L278.373249,884.054627 C278.373249,884.054627 289.900511,888.698782 296.039104,890.231516 C302.177697,891.764249 316.207095,894.415747 316.207095,894.415747 L314.355592,844.488034 Z M322.121251,895.777805 C322.121251,895.777805 330.594456,897.2178 340.720654,898.298778 C350.846852,899.379756 361.057102,899.132336 361.057102,899.132336 L359.934126,849.978264 C359.934126,849.978264 349.197212,850.39293 339.402995,849.17328 C329.608778,847.953629 320.739928,846.088455 320.739928,846.088455 L322.121251,895.777805 Z M200.939348,836.555798 C200.939348,836.555798 209.694072,846.268657 215.185992,850.790921 C220.318802,855.017479 232.813539,862.802264 232.813539,862.802264 L232.384359,817.668551 C221.667607,810.947414 212.028387,803.247883 203.891116,794.91027 L200.939348,836.555798 Z M237.996673,866.039178 C237.996673,866.039178 249.154861,872.571529 254.721904,875.12537 C260.742333,877.887199 272.759087,881.98619 272.759087,881.98619 L270.854624,834.103078 C258.906202,829.979576 247.50288,825.519462 236.68472,820.133664 L237.996673,866.039178 Z" id="Combined-Shape"></path>
            </g>
        </g>
    </g>
</svg>